<svg width="160" height="160" viewBox="0 0 160 160" fill="none" xmlns="http://www.w3.org/2000/svg">
<g clip-path="url(#clip0_3_336)">
<path d="M60.6896 0H55.1724V5.51724H60.6896V0Z" fill="white"/>
<path d="M88.2759 0H82.7587V5.51724H88.2759V0Z" fill="white"/>
<path d="M93.7931 0H88.2759V5.51724H93.7931V0Z" fill="white"/>
<path d="M104.828 0H99.3103V5.51724H104.828V0Z" fill="white"/>
<path d="M49.6551 5.51721H44.1379V11.0345H49.6551V5.51721Z" fill="white"/>
<path d="M55.1725 5.51721H49.6552V11.0345H55.1725V5.51721Z" fill="white"/>
<path d="M66.2069 5.51721H60.6897V11.0345H66.2069V5.51721Z" fill="white"/>
<path d="M71.7241 5.51721H66.2069V11.0345H71.7241V5.51721Z" fill="white"/>
<path d="M77.2413 5.51721H71.7241V11.0345H77.2413V5.51721Z" fill="white"/>
<path d="M82.7585 5.51721H77.2413V11.0345H82.7585V5.51721Z" fill="white"/>
<path d="M93.7931 5.51721H88.2759V11.0345H93.7931V5.51721Z" fill="white"/>
<path d="M99.3103 5.51721H93.7931V11.0345H99.3103V5.51721Z" fill="white"/>
<path d="M115.862 5.51721H110.345V11.0345H115.862V5.51721Z" fill="white"/>
<path d="M49.6551 11.0345H44.1379V16.5517H49.6551V11.0345Z" fill="white"/>
<path d="M55.1725 11.0345H49.6552V16.5517H55.1725V11.0345Z" fill="white"/>
<path d="M60.6896 11.0345H55.1724V16.5517H60.6896V11.0345Z" fill="white"/>
<path d="M71.7241 11.0345H66.2069V16.5517H71.7241V11.0345Z" fill="white"/>
<path d="M77.2413 11.0345H71.7241V16.5517H77.2413V11.0345Z" fill="white"/>
<path d="M88.2759 11.0345H82.7587V16.5517H88.2759V11.0345Z" fill="white"/>
<path d="M104.828 11.0345H99.3103V16.5517H104.828V11.0345Z" fill="white"/>
<path d="M115.862 11.0345H110.345V16.5517H115.862V11.0345Z" fill="white"/>
<path d="M49.6551 16.5517H44.1379V22.0689H49.6551V16.5517Z" fill="white"/>
<path d="M55.1725 16.5517H49.6552V22.0689H55.1725V16.5517Z" fill="white"/>
<path d="M66.2069 16.5517H60.6897V22.0689H66.2069V16.5517Z" fill="white"/>
<path d="M93.7931 16.5517H88.2759V22.0689H93.7931V16.5517Z" fill="white"/>
<path d="M99.3103 16.5517H93.7931V22.0689H99.3103V16.5517Z" fill="white"/>
<path d="M115.862 16.5517H110.345V22.0689H115.862V16.5517Z" fill="white"/>
<path d="M55.1725 22.069H49.6552V27.5862H55.1725V22.069Z" fill="white"/>
<path d="M88.2759 22.069H82.7587V27.5862H88.2759V22.069Z" fill="white"/>
<path d="M93.7931 22.069H88.2759V27.5862H93.7931V22.069Z" fill="white"/>
<path d="M110.345 22.069H104.828V27.5862H110.345V22.069Z" fill="white"/>
<path d="M115.862 22.069H110.345V27.5862H115.862V22.069Z" fill="white"/>
<path d="M55.1725 27.5862H49.6552V33.1034H55.1725V27.5862Z" fill="white"/>
<path d="M71.7241 27.5862H66.2069V33.1034H71.7241V27.5862Z" fill="white"/>
<path d="M88.2759 27.5862H82.7587V33.1034H88.2759V27.5862Z" fill="white"/>
<path d="M115.862 27.5862H110.345V33.1034H115.862V27.5862Z" fill="white"/>
<path d="M49.6551 33.1035H44.1379V38.6208H49.6551V33.1035Z" fill="white"/>
<path d="M60.6896 33.1035H55.1724V38.6208H60.6896V33.1035Z" fill="white"/>
<path d="M71.7241 33.1035H66.2069V38.6208H71.7241V33.1035Z" fill="white"/>
<path d="M82.7585 33.1035H77.2413V38.6208H82.7585V33.1035Z" fill="white"/>
<path d="M93.7931 33.1035H88.2759V38.6208H93.7931V33.1035Z" fill="white"/>
<path d="M104.828 33.1035H99.3103V38.6208H104.828V33.1035Z" fill="white"/>
<path d="M115.862 33.1035H110.345V38.6208H115.862V33.1035Z" fill="white"/>
<path d="M49.6551 38.6207H44.1379V44.138H49.6551V38.6207Z" fill="white"/>
<path d="M66.2069 38.6207H60.6897V44.138H66.2069V38.6207Z" fill="white"/>
<path d="M82.7585 38.6207H77.2413V44.138H82.7585V38.6207Z" fill="white"/>
<path d="M88.2759 38.6207H82.7587V44.138H88.2759V38.6207Z" fill="white"/>
<path d="M93.7931 38.6207H88.2759V44.138H93.7931V38.6207Z" fill="white"/>
<path d="M104.828 38.6207H99.3103V44.138H104.828V38.6207Z" fill="white"/>
<path d="M115.862 38.6207H110.345V44.138H115.862V38.6207Z" fill="white"/>
<path d="M5.51724 44.1379H0V49.6551H5.51724V44.1379Z" fill="white"/>
<path d="M38.6206 44.1379H33.1034V49.6551H38.6206V44.1379Z" fill="white"/>
<path d="M49.6551 44.1379H44.1379V49.6551H49.6551V44.1379Z" fill="white"/>
<path d="M60.6896 44.1379H55.1724V49.6551H60.6896V44.1379Z" fill="white"/>
<path d="M93.7931 44.1379H88.2759V49.6551H93.7931V44.1379Z" fill="white"/>
<path d="M99.3103 44.1379H93.7931V49.6551H99.3103V44.1379Z" fill="white"/>
<path d="M110.345 44.1379H104.828V49.6551H110.345V44.1379Z" fill="white"/>
<path d="M121.379 44.1379H115.862V49.6551H121.379V44.1379Z" fill="white"/>
<path d="M126.896 44.1379H121.379V49.6551H126.896V44.1379Z" fill="white"/>
<path d="M143.448 44.1379H137.931V49.6551H143.448V44.1379Z" fill="white"/>
<path d="M148.965 44.1379H143.448V49.6551H148.965V44.1379Z" fill="white"/>
<path d="M154.483 44.1379H148.966V49.6551H154.483V44.1379Z" fill="white"/>
<path d="M5.51724 49.6552H0V55.1725H5.51724V49.6552Z" fill="white"/>
<path d="M16.5516 49.6552H11.0344V55.1725H16.5516V49.6552Z" fill="white"/>
<path d="M33.1035 49.6552H27.5862V55.1725H33.1035V49.6552Z" fill="white"/>
<path d="M77.2413 49.6552H71.7241V55.1725H77.2413V49.6552Z" fill="white"/>
<path d="M93.7931 49.6552H88.2759V55.1725H93.7931V49.6552Z" fill="white"/>
<path d="M99.3103 49.6552H93.7931V55.1725H99.3103V49.6552Z" fill="white"/>
<path d="M104.828 49.6552H99.3103V55.1725H104.828V49.6552Z" fill="white"/>
<path d="M110.345 49.6552H104.828V55.1725H110.345V49.6552Z" fill="white"/>
<path d="M132.414 49.6552H126.897V55.1725H132.414V49.6552Z" fill="white"/>
<path d="M137.931 49.6552H132.414V55.1725H137.931V49.6552Z" fill="white"/>
<path d="M148.965 49.6552H143.448V55.1725H148.965V49.6552Z" fill="white"/>
<path d="M154.483 49.6552H148.966V55.1725H154.483V49.6552Z" fill="white"/>
<path d="M11.0345 55.1724H5.51721V60.6897H11.0345V55.1724Z" fill="white"/>
<path d="M16.5516 55.1724H11.0344V60.6897H16.5516V55.1724Z" fill="white"/>
<path d="M22.069 55.1724H16.5518V60.6897H22.069V55.1724Z" fill="white"/>
<path d="M27.5862 55.1724H22.069V60.6897H27.5862V55.1724Z" fill="white"/>
<path d="M38.6206 55.1724H33.1034V60.6897H38.6206V55.1724Z" fill="white"/>
<path d="M44.1379 55.1724H38.6207V60.6897H44.1379V55.1724Z" fill="white"/>
<path d="M49.6551 55.1724H44.1379V60.6897H49.6551V55.1724Z" fill="white"/>
<path d="M55.1725 55.1724H49.6552V60.6897H55.1725V55.1724Z" fill="white"/>
<path d="M71.7241 55.1724H66.2069V60.6897H71.7241V55.1724Z" fill="white"/>
<path d="M77.2413 55.1724H71.7241V60.6897H77.2413V55.1724Z" fill="white"/>
<path d="M82.7585 55.1724H77.2413V60.6897H82.7585V55.1724Z" fill="white"/>
<path d="M88.2759 55.1724H82.7587V60.6897H88.2759V55.1724Z" fill="white"/>
<path d="M93.7931 55.1724H88.2759V60.6897H93.7931V55.1724Z" fill="white"/>
<path d="M99.3103 55.1724H93.7931V60.6897H99.3103V55.1724Z" fill="white"/>
<path d="M5.51724 60.6896H0V66.2068H5.51724V60.6896Z" fill="white"/>
<path d="M16.5516 60.6896H11.0344V66.2068H16.5516V60.6896Z" fill="white"/>
<path d="M33.1035 60.6896H27.5862V66.2068H33.1035V60.6896Z" fill="white"/>
<path d="M44.1379 60.6896H38.6207V66.2068H44.1379V60.6896Z" fill="white"/>
<path d="M49.6551 60.6896H44.1379V66.2068H49.6551V60.6896Z" fill="white"/>
<path d="M55.1725 60.6896H49.6552V66.2068H55.1725V60.6896Z" fill="white"/>
<path d="M60.6896 60.6896H55.1724V66.2068H60.6896V60.6896Z" fill="white"/>
<path d="M71.7241 60.6896H66.2069V66.2068H71.7241V60.6896Z" fill="white"/>
<path d="M77.2413 60.6896H71.7241V66.2068H77.2413V60.6896Z" fill="white"/>
<path d="M115.862 60.6896H110.345V66.2068H115.862V60.6896Z" fill="white"/>
<path d="M126.896 60.6896H121.379V66.2068H126.896V60.6896Z" fill="white"/>
<path d="M132.414 60.6896H126.897V66.2068H132.414V60.6896Z" fill="white"/>
<path d="M143.448 60.6896H137.931V66.2068H143.448V60.6896Z" fill="white"/>
<path d="M11.0345 66.2069H5.51721V71.7241H11.0345V66.2069Z" fill="white"/>
<path d="M33.1035 66.2069H27.5862V71.7241H33.1035V66.2069Z" fill="white"/>
<path d="M38.6206 66.2069H33.1034V71.7241H38.6206V66.2069Z" fill="white"/>
<path d="M49.6551 66.2069H44.1379V71.7241H49.6551V66.2069Z" fill="white"/>
<path d="M60.6896 66.2069H55.1724V71.7241H60.6896V66.2069Z" fill="white"/>
<path d="M77.2413 66.2069H71.7241V71.7241H77.2413V66.2069Z" fill="white"/>
<path d="M88.2759 66.2069H82.7587V71.7241H88.2759V66.2069Z" fill="white"/>
<path d="M93.7931 66.2069H88.2759V71.7241H93.7931V66.2069Z" fill="white"/>
<path d="M110.345 66.2069H104.828V71.7241H110.345V66.2069Z" fill="white"/>
<path d="M115.862 66.2069H110.345V71.7241H115.862V66.2069Z" fill="white"/>
<path d="M126.896 66.2069H121.379V71.7241H126.896V66.2069Z" fill="white"/>
<path d="M132.414 66.2069H126.897V71.7241H132.414V66.2069Z" fill="white"/>
<path d="M160 66.2069H154.483V71.7241H160V66.2069Z" fill="white"/>
<path d="M16.5516 71.7241H11.0344V77.2414H16.5516V71.7241Z" fill="white"/>
<path d="M27.5862 71.7241H22.069V77.2414H27.5862V71.7241Z" fill="white"/>
<path d="M44.1379 71.7241H38.6207V77.2414H44.1379V71.7241Z" fill="white"/>
<path d="M55.1725 71.7241H49.6552V77.2414H55.1725V71.7241Z" fill="white"/>
<path d="M60.6896 71.7241H55.1724V77.2414H60.6896V71.7241Z" fill="white"/>
<path d="M93.7931 71.7241H88.2759V77.2414H93.7931V71.7241Z" fill="white"/>
<path d="M110.345 71.7241H104.828V77.2414H110.345V71.7241Z" fill="white"/>
<path d="M115.862 71.7241H110.345V77.2414H115.862V71.7241Z" fill="white"/>
<path d="M121.379 71.7241H115.862V77.2414H121.379V71.7241Z" fill="white"/>
<path d="M126.896 71.7241H121.379V77.2414H126.896V71.7241Z" fill="white"/>
<path d="M137.931 71.7241H132.414V77.2414H137.931V71.7241Z" fill="white"/>
<path d="M154.483 71.7241H148.966V77.2414H154.483V71.7241Z" fill="white"/>
<path d="M160 71.7241H154.483V77.2414H160V71.7241Z" fill="white"/>
<path d="M5.51724 77.2414H0V82.7586H5.51724V77.2414Z" fill="white"/>
<path d="M11.0345 77.2414H5.51721V82.7586H11.0345V77.2414Z" fill="white"/>
<path d="M27.5862 77.2414H22.069V82.7586H27.5862V77.2414Z" fill="white"/>
<path d="M38.6206 77.2414H33.1034V82.7586H38.6206V77.2414Z" fill="white"/>
<path d="M49.6551 77.2414H44.1379V82.7586H49.6551V77.2414Z" fill="white"/>
<path d="M55.1725 77.2414H49.6552V82.7586H55.1725V77.2414Z" fill="white"/>
<path d="M99.3103 77.2414H93.7931V82.7586H99.3103V77.2414Z" fill="white"/>
<path d="M104.828 77.2414H99.3103V82.7586H104.828V77.2414Z" fill="white"/>
<path d="M121.379 77.2414H115.862V82.7586H121.379V77.2414Z" fill="white"/>
<path d="M132.414 77.2414H126.897V82.7586H132.414V77.2414Z" fill="white"/>
<path d="M143.448 77.2414H137.931V82.7586H143.448V77.2414Z" fill="white"/>
<path d="M148.965 77.2414H143.448V82.7586H148.965V77.2414Z" fill="white"/>
<path d="M49.6551 82.7586H44.1379V88.2758H49.6551V82.7586Z" fill="white"/>
<path d="M55.1725 82.7586H49.6552V88.2758H55.1725V82.7586Z" fill="white"/>
<path d="M60.6896 82.7586H55.1724V88.2758H60.6896V82.7586Z" fill="white"/>
<path d="M88.2759 82.7586H82.7587V88.2758H88.2759V82.7586Z" fill="white"/>
<path d="M104.828 82.7586H99.3103V88.2758H104.828V82.7586Z" fill="white"/>
<path d="M110.345 82.7586H104.828V88.2758H110.345V82.7586Z" fill="white"/>
<path d="M132.414 82.7586H126.897V88.2758H132.414V82.7586Z" fill="white"/>
<path d="M137.931 82.7586H132.414V88.2758H137.931V82.7586Z" fill="white"/>
<path d="M148.965 82.7586H143.448V88.2758H148.965V82.7586Z" fill="white"/>
<path d="M160 82.7586H154.483V88.2758H160V82.7586Z" fill="white"/>
<path d="M5.51724 88.2759H0V93.7931H5.51724V88.2759Z" fill="white"/>
<path d="M27.5862 88.2759H22.069V93.7931H27.5862V88.2759Z" fill="white"/>
<path d="M33.1035 88.2759H27.5862V93.7931H33.1035V88.2759Z" fill="white"/>
<path d="M38.6206 88.2759H33.1034V93.7931H38.6206V88.2759Z" fill="white"/>
<path d="M66.2069 88.2759H60.6897V93.7931H66.2069V88.2759Z" fill="white"/>
<path d="M93.7931 88.2759H88.2759V93.7931H93.7931V88.2759Z" fill="white"/>
<path d="M99.3103 88.2759H93.7931V93.7931H99.3103V88.2759Z" fill="white"/>
<path d="M104.828 88.2759H99.3103V93.7931H104.828V88.2759Z" fill="white"/>
<path d="M110.345 88.2759H104.828V93.7931H110.345V88.2759Z" fill="white"/>
<path d="M132.414 88.2759H126.897V93.7931H132.414V88.2759Z" fill="white"/>
<path d="M143.448 88.2759H137.931V93.7931H143.448V88.2759Z" fill="white"/>
<path d="M148.965 88.2759H143.448V93.7931H148.965V88.2759Z" fill="white"/>
<path d="M5.51724 93.7931H0V99.3103H5.51724V93.7931Z" fill="white"/>
<path d="M44.1379 93.7931H38.6207V99.3103H44.1379V93.7931Z" fill="white"/>
<path d="M49.6551 93.7931H44.1379V99.3103H49.6551V93.7931Z" fill="white"/>
<path d="M55.1725 93.7931H49.6552V99.3103H55.1725V93.7931Z" fill="white"/>
<path d="M66.2069 93.7931H60.6897V99.3103H66.2069V93.7931Z" fill="white"/>
<path d="M77.2413 93.7931H71.7241V99.3103H77.2413V93.7931Z" fill="white"/>
<path d="M82.7585 93.7931H77.2413V99.3103H82.7585V93.7931Z" fill="white"/>
<path d="M99.3103 93.7931H93.7931V99.3103H99.3103V93.7931Z" fill="white"/>
<path d="M104.828 93.7931H99.3103V99.3103H104.828V93.7931Z" fill="white"/>
<path d="M110.345 93.7931H104.828V99.3103H110.345V93.7931Z" fill="white"/>
<path d="M115.862 93.7931H110.345V99.3103H115.862V93.7931Z" fill="white"/>
<path d="M126.896 93.7931H121.379V99.3103H126.896V93.7931Z" fill="white"/>
<path d="M132.414 93.7931H126.897V99.3103H132.414V93.7931Z" fill="white"/>
<path d="M137.931 93.7931H132.414V99.3103H137.931V93.7931Z" fill="white"/>
<path d="M148.965 93.7931H143.448V99.3103H148.965V93.7931Z" fill="white"/>
<path d="M154.483 93.7931H148.966V99.3103H154.483V93.7931Z" fill="white"/>
<path d="M160 93.7931H154.483V99.3103H160V93.7931Z" fill="white"/>
<path d="M5.51724 99.3104H0V104.828H5.51724V99.3104Z" fill="white"/>
<path d="M11.0345 99.3104H5.51721V104.828H11.0345V99.3104Z" fill="white"/>
<path d="M22.069 99.3104H16.5518V104.828H22.069V99.3104Z" fill="white"/>
<path d="M27.5862 99.3104H22.069V104.828H27.5862V99.3104Z" fill="white"/>
<path d="M33.1035 99.3104H27.5862V104.828H33.1035V99.3104Z" fill="white"/>
<path d="M38.6206 99.3104H33.1034V104.828H38.6206V99.3104Z" fill="white"/>
<path d="M49.6551 99.3104H44.1379V104.828H49.6551V99.3104Z" fill="white"/>
<path d="M55.1725 99.3104H49.6552V104.828H55.1725V99.3104Z" fill="white"/>
<path d="M66.2069 99.3104H60.6897V104.828H66.2069V99.3104Z" fill="white"/>
<path d="M88.2759 99.3104H82.7587V104.828H88.2759V99.3104Z" fill="white"/>
<path d="M110.345 99.3104H104.828V104.828H110.345V99.3104Z" fill="white"/>
<path d="M143.448 99.3104H137.931V104.828H143.448V99.3104Z" fill="white"/>
<path d="M160 99.3104H154.483V104.828H160V99.3104Z" fill="white"/>
<path d="M5.51724 104.828H0V110.345H5.51724V104.828Z" fill="white"/>
<path d="M16.5516 104.828H11.0344V110.345H16.5516V104.828Z" fill="white"/>
<path d="M22.069 104.828H16.5518V110.345H22.069V104.828Z" fill="white"/>
<path d="M33.1035 104.828H27.5862V110.345H33.1035V104.828Z" fill="white"/>
<path d="M55.1725 104.828H49.6552V110.345H55.1725V104.828Z" fill="white"/>
<path d="M60.6896 104.828H55.1724V110.345H60.6896V104.828Z" fill="white"/>
<path d="M71.7241 104.828H66.2069V110.345H71.7241V104.828Z" fill="white"/>
<path d="M77.2413 104.828H71.7241V110.345H77.2413V104.828Z" fill="white"/>
<path d="M104.828 104.828H99.3103V110.345H104.828V104.828Z" fill="white"/>
<path d="M115.862 104.828H110.345V110.345H115.862V104.828Z" fill="white"/>
<path d="M121.379 104.828H115.862V110.345H121.379V104.828Z" fill="white"/>
<path d="M126.896 104.828H121.379V110.345H126.896V104.828Z" fill="white"/>
<path d="M132.414 104.828H126.897V110.345H132.414V104.828Z" fill="white"/>
<path d="M137.931 104.828H132.414V110.345H137.931V104.828Z" fill="white"/>
<path d="M5.51724 110.345H0V115.862H5.51724V110.345Z" fill="white"/>
<path d="M27.5862 110.345H22.069V115.862H27.5862V110.345Z" fill="white"/>
<path d="M38.6206 110.345H33.1034V115.862H38.6206V110.345Z" fill="white"/>
<path d="M44.1379 110.345H38.6207V115.862H44.1379V110.345Z" fill="white"/>
<path d="M55.1725 110.345H49.6552V115.862H55.1725V110.345Z" fill="white"/>
<path d="M66.2069 110.345H60.6897V115.862H66.2069V110.345Z" fill="white"/>
<path d="M82.7585 110.345H77.2413V115.862H82.7585V110.345Z" fill="white"/>
<path d="M88.2759 110.345H82.7587V115.862H88.2759V110.345Z" fill="white"/>
<path d="M99.3103 110.345H93.7931V115.862H99.3103V110.345Z" fill="white"/>
<path d="M115.862 110.345H110.345V115.862H115.862V110.345Z" fill="white"/>
<path d="M121.379 110.345H115.862V115.862H121.379V110.345Z" fill="white"/>
<path d="M126.896 110.345H121.379V115.862H126.896V110.345Z" fill="white"/>
<path d="M132.414 110.345H126.897V115.862H132.414V110.345Z" fill="white"/>
<path d="M137.931 110.345H132.414V115.862H137.931V110.345Z" fill="white"/>
<path d="M148.965 110.345H143.448V115.862H148.965V110.345Z" fill="white"/>
<path d="M154.483 110.345H148.966V115.862H154.483V110.345Z" fill="white"/>
<path d="M160 110.345H154.483V115.862H160V110.345Z" fill="white"/>
<path d="M49.6551 115.862H44.1379V121.379H49.6551V115.862Z" fill="white"/>
<path d="M55.1725 115.862H49.6552V121.379H55.1725V115.862Z" fill="white"/>
<path d="M60.6896 115.862H55.1724V121.379H60.6896V115.862Z" fill="white"/>
<path d="M82.7585 115.862H77.2413V121.379H82.7585V115.862Z" fill="white"/>
<path d="M99.3103 115.862H93.7931V121.379H99.3103V115.862Z" fill="white"/>
<path d="M104.828 115.862H99.3103V121.379H104.828V115.862Z" fill="white"/>
<path d="M115.862 115.862H110.345V121.379H115.862V115.862Z" fill="white"/>
<path d="M137.931 115.862H132.414V121.379H137.931V115.862Z" fill="white"/>
<path d="M143.448 115.862H137.931V121.379H143.448V115.862Z" fill="white"/>
<path d="M71.7241 121.379H66.2069V126.896H71.7241V121.379Z" fill="white"/>
<path d="M104.828 121.379H99.3103V126.896H104.828V121.379Z" fill="white"/>
<path d="M110.345 121.379H104.828V126.896H110.345V121.379Z" fill="white"/>
<path d="M115.862 121.379H110.345V126.896H115.862V121.379Z" fill="white"/>
<path d="M126.896 121.379H121.379V126.896H126.896V121.379Z" fill="white"/>
<path d="M137.931 121.379H132.414V126.896H137.931V121.379Z" fill="white"/>
<path d="M143.448 121.379H137.931V126.896H143.448V121.379Z" fill="white"/>
<path d="M148.965 121.379H143.448V126.896H148.965V121.379Z" fill="white"/>
<path d="M60.6896 126.897H55.1724V132.414H60.6896V126.897Z" fill="white"/>
<path d="M66.2069 126.897H60.6897V132.414H66.2069V126.897Z" fill="white"/>
<path d="M82.7585 126.897H77.2413V132.414H82.7585V126.897Z" fill="white"/>
<path d="M88.2759 126.897H82.7587V132.414H88.2759V126.897Z" fill="white"/>
<path d="M93.7931 126.897H88.2759V132.414H93.7931V126.897Z" fill="white"/>
<path d="M110.345 126.897H104.828V132.414H110.345V126.897Z" fill="white"/>
<path d="M115.862 126.897H110.345V132.414H115.862V126.897Z" fill="white"/>
<path d="M137.931 126.897H132.414V132.414H137.931V126.897Z" fill="white"/>
<path d="M160 126.897H154.483V132.414H160V126.897Z" fill="white"/>
<path d="M71.7241 132.414H66.2069V137.931H71.7241V132.414Z" fill="white"/>
<path d="M77.2413 132.414H71.7241V137.931H77.2413V132.414Z" fill="white"/>
<path d="M82.7585 132.414H77.2413V137.931H82.7585V132.414Z" fill="white"/>
<path d="M93.7931 132.414H88.2759V137.931H93.7931V132.414Z" fill="white"/>
<path d="M110.345 132.414H104.828V137.931H110.345V132.414Z" fill="white"/>
<path d="M115.862 132.414H110.345V137.931H115.862V132.414Z" fill="white"/>
<path d="M121.379 132.414H115.862V137.931H121.379V132.414Z" fill="white"/>
<path d="M126.896 132.414H121.379V137.931H126.896V132.414Z" fill="white"/>
<path d="M132.414 132.414H126.897V137.931H132.414V132.414Z" fill="white"/>
<path d="M137.931 132.414H132.414V137.931H137.931V132.414Z" fill="white"/>
<path d="M143.448 132.414H137.931V137.931H143.448V132.414Z" fill="white"/>
<path d="M55.1725 137.931H49.6552V143.448H55.1725V137.931Z" fill="white"/>
<path d="M60.6896 137.931H55.1724V143.448H60.6896V137.931Z" fill="white"/>
<path d="M66.2069 137.931H60.6897V143.448H66.2069V137.931Z" fill="white"/>
<path d="M77.2413 137.931H71.7241V143.448H77.2413V137.931Z" fill="white"/>
<path d="M82.7585 137.931H77.2413V143.448H82.7585V137.931Z" fill="white"/>
<path d="M99.3103 137.931H93.7931V143.448H99.3103V137.931Z" fill="white"/>
<path d="M104.828 137.931H99.3103V143.448H104.828V137.931Z" fill="white"/>
<path d="M121.379 137.931H115.862V143.448H121.379V137.931Z" fill="white"/>
<path d="M132.414 137.931H126.897V143.448H132.414V137.931Z" fill="white"/>
<path d="M143.448 137.931H137.931V143.448H143.448V137.931Z" fill="white"/>
<path d="M148.965 137.931H143.448V143.448H148.965V137.931Z" fill="white"/>
<path d="M154.483 137.931H148.966V143.448H154.483V137.931Z" fill="white"/>
<path d="M55.1725 143.448H49.6552V148.965H55.1725V143.448Z" fill="white"/>
<path d="M60.6896 143.448H55.1724V148.965H60.6896V143.448Z" fill="white"/>
<path d="M88.2759 143.448H82.7587V148.965H88.2759V143.448Z" fill="white"/>
<path d="M93.7931 143.448H88.2759V148.965H93.7931V143.448Z" fill="white"/>
<path d="M99.3103 143.448H93.7931V148.965H99.3103V143.448Z" fill="white"/>
<path d="M110.345 143.448H104.828V148.965H110.345V143.448Z" fill="white"/>
<path d="M121.379 143.448H115.862V148.965H121.379V143.448Z" fill="white"/>
<path d="M126.896 143.448H121.379V148.965H126.896V143.448Z" fill="white"/>
<path d="M132.414 143.448H126.897V148.965H132.414V143.448Z" fill="white"/>
<path d="M137.931 143.448H132.414V148.965H137.931V143.448Z" fill="white"/>
<path d="M143.448 143.448H137.931V148.965H143.448V143.448Z" fill="white"/>
<path d="M148.965 143.448H143.448V148.965H148.965V143.448Z" fill="white"/>
<path d="M154.483 143.448H148.966V148.965H154.483V143.448Z" fill="white"/>
<path d="M71.7241 148.966H66.2069V154.483H71.7241V148.966Z" fill="white"/>
<path d="M88.2759 148.966H82.7587V154.483H88.2759V148.966Z" fill="white"/>
<path d="M110.345 148.966H104.828V154.483H110.345V148.966Z" fill="white"/>
<path d="M121.379 148.966H115.862V154.483H121.379V148.966Z" fill="white"/>
<path d="M132.414 148.966H126.897V154.483H132.414V148.966Z" fill="white"/>
<path d="M143.448 148.966H137.931V154.483H143.448V148.966Z" fill="white"/>
<path d="M148.965 148.966H143.448V154.483H148.965V148.966Z" fill="white"/>
<path d="M160 148.966H154.483V154.483H160V148.966Z" fill="white"/>
<path d="M49.6551 154.483H44.1379V160H49.6551V154.483Z" fill="white"/>
<path d="M55.1725 154.483H49.6552V160H55.1725V154.483Z" fill="white"/>
<path d="M66.2069 154.483H60.6897V160H66.2069V154.483Z" fill="white"/>
<path d="M77.2413 154.483H71.7241V160H77.2413V154.483Z" fill="white"/>
<path d="M82.7585 154.483H77.2413V160H82.7585V154.483Z" fill="white"/>
<path d="M99.3103 154.483H93.7931V160H99.3103V154.483Z" fill="white"/>
<path d="M104.828 154.483H99.3103V160H104.828V154.483Z" fill="white"/>
<path d="M110.345 154.483H104.828V160H110.345V154.483Z" fill="white"/>
<path d="M121.379 154.483H115.862V160H121.379V154.483Z" fill="white"/>
<path d="M126.896 154.483H121.379V160H126.896V154.483Z" fill="white"/>
<path d="M132.414 154.483H126.897V160H132.414V154.483Z" fill="white"/>
<path d="M137.931 154.483H132.414V160H137.931V154.483Z" fill="white"/>
<path d="M143.448 154.483H137.931V160H143.448V154.483Z" fill="white"/>
<path d="M148.965 154.483H143.448V160H148.965V154.483Z" fill="white"/>
<path fill-rule="evenodd" clip-rule="evenodd" d="M5.7931 0H32.8276H38.6207V5.7931V32.8276V38.6207H32.8276H5.7931H0V32.8276V5.7931V0H5.7931ZM5.7931 32.8276H32.8276V5.7931H5.7931V32.8276Z" fill="white"/>
<path fill-rule="evenodd" clip-rule="evenodd" d="M127.172 0H154.207H160V5.7931V32.8276V38.6207H154.207H127.172H121.379V32.8276V5.7931V0H127.172ZM127.172 32.8276H154.207V5.7931H127.172V32.8276Z" fill="white"/>
<path fill-rule="evenodd" clip-rule="evenodd" d="M5.7931 121.379H32.8276H38.6207V127.172V154.207V160H32.8276H5.7931H0V154.207V127.172V121.379H5.7931ZM5.7931 154.207H32.8276V127.172H5.7931V154.207Z" fill="white"/>
<path d="M27.5861 11.0345H11.0344V27.5862H27.5861V11.0345Z" fill="white"/>
<path d="M148.966 11.0345H132.414V27.5862H148.966V11.0345Z" fill="white"/>
<path d="M27.5861 132.414H11.0344V148.966H27.5861V132.414Z" fill="white"/>
</g>
<defs>
<clipPath id="clip0_3_336">
<rect width="160" height="160" fill="white"/>
</clipPath>
</defs>
</svg>
